<?xml version="1.0" encoding="iso-8859-1"?>
<!-- Uploaded to: SVG Repo, www.svgrepo.com, Generator: SVG Repo Mixer Tools -->
<svg height="800px" width="800px" version="1.1" id="Layer_1" xmlns="http://www.w3.org/2000/svg" xmlns:xlink="http://www.w3.org/1999/xlink" 
	 viewBox="0 0 512 512" xml:space="preserve">
<path style="fill:#999999;" d="M256,0C114.616,0,0,114.616,0,256s114.616,256,256,256s256-114.616,256-256S397.384,0,256,0z"/>
<polygon points="446.512,335.656 65.488,335.656 65.488,348.256 84.536,365.848 427.464,365.848 446.512,348.256 "/>
<path style="fill:#FFFFFF;" d="M101.208,335.656V129.072c0-4.944,4.016-8.984,8.928-8.984h291.72c4.912,0,8.936,4.04,8.936,8.984
	v206.584"/>
<path d="M416.744,335.656H404.84V129.072c0-1.64-1.36-3.032-2.976-3.032H110.136c-1.616,0-2.976,1.392-2.976,3.032v206.584H95.256
	V129.072c0-8.248,6.672-14.944,14.88-14.944h291.72c8.208,0,14.88,6.696,14.88,14.944v206.584H416.744z"/>
<polygon style="fill:#999999;" points="290.992,348.176 221.008,348.176 209.104,335.656 302.896,335.656 "/>
<path d="M285.2,70.224c0,30.16-29.2,31.976-29.2,31.976s-29.2-1.816-29.2-31.976h-37.064l-52.288,26.912l20.592,57.976l29.824-13
	v149.88H256h68.128V142.104l29.824,13L374.544,97l-52.288-26.776H285.2z"/>
<path style="fill:#F00000;" d="M251.496,222.08v-26.952c-8.408-2.4-14.568-6.04-18.496-10.904
	c-3.92-4.872-5.888-10.776-5.888-17.728c0-7.032,2.216-12.944,6.656-17.728s10.344-7.536,17.728-8.264v-6.368h9.328v6.368
	c6.816,0.816,12.248,3.144,16.28,6.984s6.6,8.976,7.72,15.408l-16.28,2.128c-0.984-5.064-3.56-8.496-7.72-10.296v25.16
	c10.288,2.792,17.304,6.4,21.04,10.84c3.728,4.432,5.6,10.128,5.6,17.08c0,7.76-2.352,14.304-7.048,19.624
	s-11.224,8.576-19.584,9.776v12.032h-9.328v-11.72c-7.424-0.896-13.448-3.664-18.08-8.304c-4.632-4.632-7.592-11.168-8.88-19.624
	l16.792-1.8c0.688,3.432,1.968,6.392,3.864,8.88C247.08,219.168,249.176,220.968,251.496,222.08z M251.496,154.528
	c-2.536,0.856-4.552,2.312-6.048,4.376c-1.504,2.056-2.248,4.328-2.248,6.816c0,2.272,0.688,4.384,2.056,6.336
	c1.376,1.952,3.456,3.528,6.24,4.728V154.528z M260.824,222.984c3.216-0.6,5.832-2.088,7.848-4.472
	c2.016-2.376,3.024-5.176,3.024-8.4c0-2.872-0.848-5.344-2.544-7.432c-1.696-2.08-4.472-3.672-8.328-4.792L260.824,222.984
	L260.824,222.984z"/>
</svg>