<?xml version="1.0" encoding="iso-8859-1"?>
<!-- Uploaded to: SVG Repo, www.svgrepo.com, Generator: SVG Repo Mixer Tools -->
<svg version="1.1" id="Layer_1" xmlns="http://www.w3.org/2000/svg" xmlns:xlink="http://www.w3.org/1999/xlink" 
	 viewBox="0 0 512 512" xml:space="preserve">
<path style="fill:#521F0E;" d="M509.571,220.737C492.388,96.041,385.419,0,256,0C114.615,0,0,114.616,0,256
	c0,113.387,73.722,209.54,175.843,243.182L509.571,220.737z"/>
<path style="fill:#220D06;" d="M512,256c0-11.966-0.84-23.735-2.429-35.263L400.696,111.861L74.199,196.297l1.036,85.198
	l84.321,84.321L55.652,378.991l120.191,120.191C201.06,507.49,228.001,512,256,512C397.384,512,512,397.384,512,256z"/>
<polygon style="fill:#FFE376;" points="422.957,378.991 400.696,417.948 256,417.948 234.296,367.861 "/>
<polygon style="fill:#FFF3AD;" points="111.304,417.948 256,417.948 256,367.861 89.043,378.991 "/>
<path style="fill:#FFFFFF;" d="M222.609,301.078H122.435c-36.824,0-66.783-29.959-66.783-66.783s29.959-66.783,66.783-66.783
	h100.174v22.261H122.435c-24.549,0-44.522,19.972-44.522,44.522s19.972,44.522,44.522,44.522h100.174V301.078z"/>
<path style="fill:#FFF3AD;" d="M400.696,111.861H256l-33.391,267.13l122.435-22.261
	C345.043,266.768,400.696,201.824,400.696,111.861z"/>
<path style="fill:#FFFFFF;" d="M111.304,111.861H256v267.13l-89.043-22.261C166.957,266.768,111.304,201.824,111.304,111.861z"/>
<polygon style="fill:#FFD23E;" points="456.348,356.73 456.348,378.991 256,378.991 245.009,367.861 256,356.73 "/>
<rect x="55.652" y="356.73" style="fill:#FFE376;" width="200.348" height="22.261"/>
<path style="fill:#692811;" d="M200.904,111.861l176.295,22.261c-3.539,32.145-14.158,61.696-25.277,92.65
	c-12.099,33.67-24.543,68.307-28.127,107.698H256L200.904,111.861z"/>
<path style="fill:#813115;" d="M256,111.861V334.47h-67.795c-3.584-39.391-16.028-74.029-28.127-107.698
	c-11.119-30.954-21.738-60.505-25.277-92.65L256,111.861z"/>
<polygon style="fill:#B78456;" points="377.199,111.861 377.199,134.122 256,134.122 233.739,89.6 "/>
<g>
	<polygon style="fill:#C9A06C;" points="134.801,111.861 256,89.6 256,134.122 134.801,134.122 	"/>
	<path style="fill:#C9A06C;" d="M377.199,111.861H256L233.739,89.6L256,67.339h76.678
		C357.165,67.339,377.199,87.374,377.199,111.861z"/>
</g>
<path style="fill:#DBBC82;" d="M256,67.339v44.522H134.801c0-24.487,20.035-44.522,44.522-44.522H256z"/>
</svg>