<?xml version="1.0" encoding="utf-8"?>
<!-- Uploaded to: SVG Repo, www.svgrepo.com, Generator: SVG Repo Mixer Tools -->
<svg version="1.1" id="Uploaded to svgrepo.com" xmlns="http://www.w3.org/2000/svg" xmlns:xlink="http://www.w3.org/1999/xlink" 
	 width="800px" height="800px" viewBox="0 0 32 32" xml:space="preserve">
<style type="text/css">
	.avocado_een{fill:#231F20;}
	.avocado_negen{fill:#6F9B45;}
	.avocado_tien{fill:#C3CC6A;}
	.st0{fill:#EAD13F;}
	.st1{fill:#CC4121;}
	.st2{fill:#FFFAEE;}
	.st3{fill:#E0A838;}
	.st4{fill:#D1712A;}
	.st5{fill:#A3AEB5;}
	.st6{fill:#788287;}
	.st7{fill:#248EBC;}
	.st8{fill:#8D3E93;}
	.st9{fill:#3D3935;}
	.st10{fill:#D36781;}
	.st11{fill:#E598A3;}
	.st12{fill:#716558;}
	.st13{fill:#AF9480;}
	.st14{fill:#DBD2C1;}
	.st15{fill:#231F20;}
</style>
<g>
	<rect x="1.5" y="8.5" class="avocado_tien" width="29" height="15"/>
	<path class="avocado_negen" d="M21,16c0,3.314-1.686,6-5,6s-5-2.686-5-6s1.686-6,5-6S21,12.686,21,16z M4,10
		c-0.552,0-1,0.448-1,1s0.448,1,1,1s1-0.448,1-1S4.552,10,4,10z M4,20c-0.552,0-1,0.448-1,1s0.448,1,1,1s1-0.448,1-1S4.552,20,4,20z
		 M28,10c-0.552,0-1,0.448-1,1s0.448,1,1,1s1-0.448,1-1S28.552,10,28,10z M28,20c-0.552,0-1,0.448-1,1s0.448,1,1,1s1-0.448,1-1
		S28.552,20,28,20z M3.229,23.5L11,31.292l7.792-7.792H3.229z M28.785,8.5L21,0.736L13.236,8.5H28.785z"/>
	<path class="avocado_een" d="M31,12l1-1l-1-0.997V8h-2.008L21,0.029L13.029,8H1v12.029L0.029,21L1,21.973V24h2.021L11,32l8-8
		h12V12z M21.001,1.443L27.576,8H14.444L21.001,1.443z M11.001,30.585L4.434,24h13.152L11.001,30.585z M30,23H2V9h28V23z"/>
</g>
</svg>