<?xml version="1.0" encoding="iso-8859-1"?>
<!-- Uploaded to: SVG Repo, www.svgrepo.com, Generator: SVG Repo Mixer Tools -->
<svg height="800px" width="800px" version="1.1" id="Layer_1" xmlns="http://www.w3.org/2000/svg" xmlns:xlink="http://www.w3.org/1999/xlink" 
	 viewBox="0 0 512 512" xml:space="preserve">
<path d="M256,0C114.616,0,0,114.616,0,256s114.616,256,256,256s256-114.616,256-256S397.384,0,256,0z"/>
<g>
	<polygon style="fill:#FFFFFF;" points="199.32,187.152 172.76,108.56 104,108.56 104,87.56 187.832,87.56 219.216,180.424 	"/>
	<polygon style="fill:#FFFFFF;" points="148.376,169.512 440,169.512 384.416,325.472 196.944,325.472 	"/>
</g>
<g>
	<circle style="fill:#F00000;" cx="229.72" cy="384" r="40.4"/>
	<circle style="fill:#F00000;" cx="351.688" cy="384" r="40.4"/>
	<path style="fill:#F00000;" d="M330.904,296c-5.48,3.056-14.824,6.12-25.136,6.12c-15.792,0-30.288-6.448-39.312-18.368
		c-4.36-5.48-7.568-12.4-9.024-20.944h-10.48V251.36h8.856c0-0.8,0-1.768,0-2.744c0-1.608,0.168-3.216,0.168-4.832h-9.016v-11.432
		h10.792c2.088-8.704,5.968-16.112,11.112-22.072c9.192-10.312,22.072-16.432,37.216-16.432c9.824,0,18.368,2.256,24.168,4.832
		l-4.512,18.368c-4.184-1.768-10.784-3.872-17.88-3.872c-7.728,0-14.824,2.584-19.808,8.704c-2.256,2.576-4.024,6.28-5.16,10.48
		h40.12v11.432h-42.544c-0.152,1.616-0.152,3.392-0.152,5c0,0.968,0,1.608,0,2.576h42.696v11.448h-40.44
		c1.12,4.832,2.896,8.536,5.312,11.28c5.152,5.8,12.736,8.208,20.792,8.208c7.408,0,14.976-2.408,18.368-4.184L330.904,296z"/>
</g>
</svg>